<mxfile host="app.diagrams.net" modified="2022-04-22T07:55:46.076Z" agent="5.0 (Windows NT 10.0; Win64; x64) AppleWebKit/537.36 (KHTML, like Gecko) Chrome/100.0.4896.60 Safari/537.36" etag="9ES0g6sEVZvGTye5XqMJ" version="17.4.6" type="github">
  <diagram id="6a731a19-8d31-9384-78a2-239565b7b9f0" name="Page-1">
    <mxGraphModel dx="1038" dy="547" grid="1" gridSize="10" guides="1" tooltips="1" connect="1" arrows="1" fold="1" page="1" pageScale="1" pageWidth="1169" pageHeight="827" background="none" math="0" shadow="0">
      <root>
        <mxCell id="0" />
        <mxCell id="1" parent="0" />
        <mxCell id="iua-WSG0NIJ6FS4cd9hW-55" value="_reset_team_state" style="rounded=1;whiteSpace=wrap;html=1;fillColor=#ffe6cc;strokeColor=#d79b00;" parent="1" vertex="1">
          <mxGeometry x="275" y="450" width="120" height="60" as="geometry" />
        </mxCell>
        <mxCell id="8AyeUBVBM3FPb3Mo2Ogv-47" style="edgeStyle=orthogonalEdgeStyle;rounded=0;orthogonalLoop=1;jettySize=auto;html=1;entryX=1;entryY=0.5;entryDx=0;entryDy=0;" edge="1" parent="1" source="iua-WSG0NIJ6FS4cd9hW-57" target="iua-WSG0NIJ6FS4cd9hW-55">
          <mxGeometry relative="1" as="geometry" />
        </mxCell>
        <mxCell id="iua-WSG0NIJ6FS4cd9hW-57" value="_create_team_timeout" style="rounded=1;whiteSpace=wrap;html=1;" parent="1" vertex="1">
          <mxGeometry x="525" y="570" width="150" height="60" as="geometry" />
        </mxCell>
        <mxCell id="iua-WSG0NIJ6FS4cd9hW-61" style="edgeStyle=orthogonalEdgeStyle;rounded=0;orthogonalLoop=1;jettySize=auto;html=1;entryX=1;entryY=0.5;entryDx=0;entryDy=0;" parent="1" source="iua-WSG0NIJ6FS4cd9hW-60" target="iua-WSG0NIJ6FS4cd9hW-57" edge="1">
          <mxGeometry relative="1" as="geometry" />
        </mxCell>
        <mxCell id="iua-WSG0NIJ6FS4cd9hW-62" value="timeout" style="edgeLabel;html=1;align=center;verticalAlign=middle;resizable=0;points=[];" parent="iua-WSG0NIJ6FS4cd9hW-61" vertex="1" connectable="0">
          <mxGeometry x="-0.2311" y="1" relative="1" as="geometry">
            <mxPoint as="offset" />
          </mxGeometry>
        </mxCell>
        <mxCell id="iua-WSG0NIJ6FS4cd9hW-60" value="create_camp_team" style="rounded=1;whiteSpace=wrap;html=1;" parent="1" vertex="1">
          <mxGeometry x="830" y="570" width="120" height="60" as="geometry" />
        </mxCell>
        <mxCell id="iua-WSG0NIJ6FS4cd9hW-70" style="edgeStyle=orthogonalEdgeStyle;rounded=0;orthogonalLoop=1;jettySize=auto;html=1;entryX=0;entryY=0.5;entryDx=0;entryDy=0;" parent="1" source="iua-WSG0NIJ6FS4cd9hW-64" target="iua-WSG0NIJ6FS4cd9hW-55" edge="1">
          <mxGeometry relative="1" as="geometry" />
        </mxCell>
        <mxCell id="iua-WSG0NIJ6FS4cd9hW-64" value="on_create_team_fail" style="rounded=1;whiteSpace=wrap;html=1;" parent="1" vertex="1">
          <mxGeometry x="40" y="130" width="120" height="60" as="geometry" />
        </mxCell>
        <mxCell id="iua-WSG0NIJ6FS4cd9hW-67" style="edgeStyle=orthogonalEdgeStyle;rounded=0;orthogonalLoop=1;jettySize=auto;html=1;entryX=0;entryY=0.5;entryDx=0;entryDy=0;" parent="1" source="iua-WSG0NIJ6FS4cd9hW-66" target="iua-WSG0NIJ6FS4cd9hW-55" edge="1">
          <mxGeometry relative="1" as="geometry" />
        </mxCell>
        <mxCell id="iua-WSG0NIJ6FS4cd9hW-66" value="on_join_team_fail" style="rounded=1;whiteSpace=wrap;html=1;" parent="1" vertex="1">
          <mxGeometry x="40" y="230" width="120" height="60" as="geometry" />
        </mxCell>
        <mxCell id="iua-WSG0NIJ6FS4cd9hW-69" style="edgeStyle=orthogonalEdgeStyle;rounded=0;orthogonalLoop=1;jettySize=auto;html=1;entryX=0;entryY=0.5;entryDx=0;entryDy=0;" parent="1" source="iua-WSG0NIJ6FS4cd9hW-68" target="iua-WSG0NIJ6FS4cd9hW-55" edge="1">
          <mxGeometry relative="1" as="geometry" />
        </mxCell>
        <mxCell id="iua-WSG0NIJ6FS4cd9hW-68" value="on_force_leave_team" style="rounded=1;whiteSpace=wrap;html=1;" parent="1" vertex="1">
          <mxGeometry x="40" y="340" width="120" height="60" as="geometry" />
        </mxCell>
        <mxCell id="iua-WSG0NIJ6FS4cd9hW-72" style="edgeStyle=orthogonalEdgeStyle;rounded=0;orthogonalLoop=1;jettySize=auto;html=1;entryX=0;entryY=0.5;entryDx=0;entryDy=0;" parent="1" source="iua-WSG0NIJ6FS4cd9hW-71" target="iua-WSG0NIJ6FS4cd9hW-55" edge="1">
          <mxGeometry relative="1" as="geometry" />
        </mxCell>
        <mxCell id="iua-WSG0NIJ6FS4cd9hW-71" value="on_kicked_from_team" style="rounded=1;whiteSpace=wrap;html=1;" parent="1" vertex="1">
          <mxGeometry x="40" y="450" width="120" height="60" as="geometry" />
        </mxCell>
        <mxCell id="iua-WSG0NIJ6FS4cd9hW-74" style="edgeStyle=orthogonalEdgeStyle;rounded=0;orthogonalLoop=1;jettySize=auto;html=1;entryX=0;entryY=0.5;entryDx=0;entryDy=0;" parent="1" source="iua-WSG0NIJ6FS4cd9hW-73" target="iua-WSG0NIJ6FS4cd9hW-55" edge="1">
          <mxGeometry relative="1" as="geometry" />
        </mxCell>
        <mxCell id="iua-WSG0NIJ6FS4cd9hW-73" value="on_leave_team" style="rounded=1;whiteSpace=wrap;html=1;" parent="1" vertex="1">
          <mxGeometry x="40" y="570" width="120" height="60" as="geometry" />
        </mxCell>
        <mxCell id="iua-WSG0NIJ6FS4cd9hW-76" style="edgeStyle=orthogonalEdgeStyle;rounded=0;orthogonalLoop=1;jettySize=auto;html=1;entryX=0;entryY=0.5;entryDx=0;entryDy=0;" parent="1" source="iua-WSG0NIJ6FS4cd9hW-75" target="iua-WSG0NIJ6FS4cd9hW-55" edge="1">
          <mxGeometry relative="1" as="geometry" />
        </mxCell>
        <mxCell id="iua-WSG0NIJ6FS4cd9hW-75" value="on_dismiss_team" style="rounded=1;whiteSpace=wrap;html=1;" parent="1" vertex="1">
          <mxGeometry x="40" y="690" width="120" height="60" as="geometry" />
        </mxCell>
        <mxCell id="iua-WSG0NIJ6FS4cd9hW-79" style="edgeStyle=orthogonalEdgeStyle;rounded=0;orthogonalLoop=1;jettySize=auto;html=1;entryX=0;entryY=0.5;entryDx=0;entryDy=0;" parent="1" source="iua-WSG0NIJ6FS4cd9hW-77" target="iua-WSG0NIJ6FS4cd9hW-55" edge="1">
          <mxGeometry relative="1" as="geometry" />
        </mxCell>
        <mxCell id="iua-WSG0NIJ6FS4cd9hW-77" value="on_get_team_mailbox" style="rounded=1;whiteSpace=wrap;html=1;fillColor=#008a00;fontColor=#ffffff;strokeColor=#005700;" parent="1" vertex="1">
          <mxGeometry x="20" y="810" width="140" height="60" as="geometry" />
        </mxCell>
        <mxCell id="iua-WSG0NIJ6FS4cd9hW-81" style="edgeStyle=orthogonalEdgeStyle;rounded=0;orthogonalLoop=1;jettySize=auto;html=1;entryX=1;entryY=0.5;entryDx=0;entryDy=0;" parent="1" source="iua-WSG0NIJ6FS4cd9hW-80" target="iua-WSG0NIJ6FS4cd9hW-55" edge="1">
          <mxGeometry relative="1" as="geometry" />
        </mxCell>
        <mxCell id="iua-WSG0NIJ6FS4cd9hW-80" value="on_avatar_leave_space" style="rounded=1;whiteSpace=wrap;html=1;" parent="1" vertex="1">
          <mxGeometry x="525" y="340" width="140" height="60" as="geometry" />
        </mxCell>
        <mxCell id="iua-WSG0NIJ6FS4cd9hW-83" style="edgeStyle=orthogonalEdgeStyle;rounded=0;orthogonalLoop=1;jettySize=auto;html=1;entryX=1;entryY=0.5;entryDx=0;entryDy=0;" parent="1" source="iua-WSG0NIJ6FS4cd9hW-82" target="iua-WSG0NIJ6FS4cd9hW-55" edge="1">
          <mxGeometry relative="1" as="geometry" />
        </mxCell>
        <mxCell id="iua-WSG0NIJ6FS4cd9hW-82" value="_clear_avatar_and_team_status" style="rounded=1;whiteSpace=wrap;html=1;" parent="1" vertex="1">
          <mxGeometry x="525" y="450" width="220" height="60" as="geometry" />
        </mxCell>
        <mxCell id="iua-WSG0NIJ6FS4cd9hW-87" style="edgeStyle=orthogonalEdgeStyle;rounded=0;orthogonalLoop=1;jettySize=auto;html=1;entryX=1;entryY=0.5;entryDx=0;entryDy=0;" parent="1" source="iua-WSG0NIJ6FS4cd9hW-84" target="iua-WSG0NIJ6FS4cd9hW-82" edge="1">
          <mxGeometry relative="1" as="geometry" />
        </mxCell>
        <mxCell id="iua-WSG0NIJ6FS4cd9hW-84" value="on_match_room_destroyed" style="rounded=1;whiteSpace=wrap;html=1;fillColor=#008a00;fontColor=#ffffff;strokeColor=#005700;" parent="1" vertex="1">
          <mxGeometry x="880" y="450" width="185" height="60" as="geometry" />
        </mxCell>
      </root>
    </mxGraphModel>
  </diagram>
</mxfile>
